<?xml version="1.0"?>
<svg xmlns="http://www.w3.org/2000/svg" version="1.2" baseProfile="tiny" width="800" height="508" viewBox="0 0 800 508" stroke-linecap="round" stroke-linejoin="round" fill="#F5F5F5" stroke="#141414">
<g id="CH">
<path d="M 468.14 12.08 474.85 4.09 485.85 14.37 482.61 20.52 485.61 27.89 494.74 27.61 494.77 21 499.42 21.13 509.67 28.47 506.5 29.27 509.17 33.58 518.52 38.27 537.49 30.96 566.39 32.52 568.81 36.12 582.05 37.37 630.31 65.77 637.1 79.38 648.74 86.39 647.32 101.18 622.05 149.15 627.1 175.14 621.22 186.61 654.87 187.66 688.25 197.11 691.95 219.56 734.07 238.77 749.72 233.17 755.12 218.5 765.75 218.28 768.51 207.51 777.72 199.18 794.16 213.65 793.44 240.43 788.27 249.18 790.7 260.16 781.03 281.87 786.01 290.29 797.35 293.76 799 305.26 795.53 315.83 769.16 313.4 758.23 307.58 757.67 296.67 750.25 294.66 732.05 301.04 722.94 319.64 725.49 336.47 722.54 341.88 743.16 352.29 735.13 371.52 747.63 388.13 745.47 393.11 727.35 399.58 725.06 389.51 715.13 380.09 712.25 365.32 704.05 361.72 677.65 370.87 669.06 367.98 667.28 378.06 661.37 383.34 636.86 382.27 620.01 363.07 617.49 331.61 608.85 340 602.67 332.1 590.56 332.51 583.08 348.27 587.26 353.27 590.29 375.04 581.95 400.9 571.34 416.23 558.59 425.25 553.41 444.92 543.35 450.88 545.98 462.67 539.88 470.15 554.97 486.6 544.52 506.86 533.2 503.46 526.16 505.76 528.05 491.12 520.39 474.95 501.83 466.05 513.31 444.51 508.68 438.61 493.44 433.8 485.23 437.45 471.65 430.74 455.04 409.19 442.13 402.32 439.35 391.99 442.9 356.97 439.62 347.71 434.52 346.88 419.9 351.79 413.93 368.13 398.3 383.9 379.71 393.64 377.21 398.32 387.37 412.98 384.16 430.7 369.04 440 362.17 463.57 346.55 468.11 334.68 485.46 310.13 481.92 301 472.3 282.79 467.78 250.76 487.33 237.32 485.88 213.49 495.26 198.01 491.69 188.81 480.6 183.99 465.26 171.13 450.97 159.69 450.62 163.06 434.59 146.21 428.7 146.42 415.62 155.98 394.29 142.42 374.7 149.07 357.17 118.47 346.19 95.31 347.8 80.08 357.96 63 361.23 47.19 381.23 51.17 393.47 57.98 394.8 58.81 400.72 27.57 426.21 13.45 423.58 1 427.82 5.48 417.57 1.34 406.95 24.81 398.56 33.59 369.77 28.75 360.17 19.29 354.14 21.28 340.93 36.05 320.56 31.37 312.33 86.83 267.72 84.84 257.11 90.23 242.95 87.06 229.75 89.79 220.8 117.28 210.26 129.06 201.48 133.45 186.93 180.35 144.53 180.84 132.93 194.47 123.02 188.86 113.1 164.93 116.52 175.39 98.49 186.72 91.55 183.7 82.08 190.05 79.52 219.73 82.46 217.52 93.91 229.63 100.8 258.89 95.35 262.87 88.47 260.27 82.05 269.5 84.16 272.46 81.34 271.15 75.72 276.04 71.07 272.15 68.7 298.88 55.16 302.8 54.74 300.54 61.16 294.17 62.91 306.96 68.13 321.4 65.08 330.52 54.95 344.15 56.79 346.61 63.77 369.17 63.62 392.74 49.26 402.07 47.59 411.72 49.07 414.87 55.09 423.17 57.85 439.59 56.81 441.75 51.19 452.19 47.01 458.95 55.24 466.77 37.99 459.99 36.39 441.03 42.55 429.36 36.14 429.4 27.42 437.24 21.26 441.55 10.77 456.68 6.63 457.75 1 465.26 2.57 468.14 12.08 Z"/>
</g>
</svg>
